<svg id="icon_1t_ladder_01" xmlns="http://www.w3.org/2000/svg" xmlns:xlink="http://www.w3.org/1999/xlink" width="284.21" height="205.34" viewBox="0 0 284.21 205.34">
  <defs>
    <clipPath id="clip-path">
      <rect id="사각형_2602" data-name="사각형 2602" width="284.21" height="205.34" fill="none"/>
    </clipPath>
  </defs>
  <g id="그룹_118" data-name="그룹 118" clip-path="url(#clip-path)">
    <path id="패스_1133" data-name="패스 1133" d="M272.482,125.181H211.836a9.9,9.9,0,0,1-9.9-9.9,30.789,30.789,0,0,1,30.789-30.789h39.761a9.9,9.9,0,0,1,9.9,9.9v20.886a9.9,9.9,0,0,1-9.9,9.9"/>
    <path id="패스_1134" data-name="패스 1134" d="M126.56,62.392v86.76H0v-29.01a29.3,29.3,0,0,1,.65-6.01c.06-.26.11-.51.17-.75.12-.51.24-1,.36-1.46l.17-.34v-.17l.01-.03.7-2,.26-.75.18-.53,13.95-40.16v-.16a26.814,26.814,0,0,1,1.95-4.12c.14-.26.29-.5.44-.75.27-.43.55-.85.84-1.27.17-.25.34-.49.53-.73a23.724,23.724,0,0,1,1.63-2c.23-.26.46-.51.71-.75a26.914,26.914,0,0,1,19.41-8.34h72.02a12.607,12.607,0,0,1,12.58,12.57" fill="#feb100"/>
    <path id="패스_1135" data-name="패스 1135" d="M126.563,149.152h-2.718v-15.83H59.089a39.728,39.728,0,0,0-31.763,15.83H0v11.38a12.615,12.615,0,0,0,12.579,12.58H19.3v0H123.845v0h2.718Z" fill="#ed7506"/>
    <path id="패스_1136" data-name="패스 1136" d="M94.644,173.116H23.527a35.558,35.558,0,1,1,71.117,0" fill="#2d374d"/>
    <path id="패스_1137" data-name="패스 1137" d="M91.315,173.113a32.227,32.227,0,1,1-32.227-32.227,32.227,32.227,0,0,1,32.227,32.227"/>
    <path id="패스_1138" data-name="패스 1138" d="M78.97,173.113a19.882,19.882,0,1,1-19.882-19.882A19.882,19.882,0,0,1,78.97,173.113" fill="#ed8805"/>
    <path id="패스_1139" data-name="패스 1139" d="M67.778,173.113a8.691,8.691,0,1,1-8.69-8.69,8.69,8.69,0,0,1,8.69,8.69"/>
    <path id="패스_1140" data-name="패스 1140" d="M75.783,62.912H18.8c-.4.646-.775,1.316-1.123,2a27.229,27.229,0,0,0-1.267,2.87v.16l-13.7,39.44-.25.72-.441,1.28h14.9a5.254,5.254,0,0,0,4.29-2.45c3.22-5.62,10.05-9.5,17.95-9.5H77.652a9.074,9.074,0,0,0,7.771-8.97V72.552a9.645,9.645,0,0,0-9.64-9.64" fill="#dfe3eb"/>
    <path id="패스_1141" data-name="패스 1141" d="M75.78,58.162H22.55c-.25.24-.48.49-.71.75a23.724,23.724,0,0,0-1.63,2c-.19.24-.36.48-.53.73-.29.42-.57.84-.84,1.27-.15.25-.3.49-.44.75H67.59v33.02H39.16c-7.86,0-15.16,3.88-18.6,9.88a4.5,4.5,0,0,1-3.66,2.07H2.32l-.26.75-.7,2-.01.03v.17l-.17.34c-.12.46-.24.95-.36,1.46-.06.24-.11.49-.17.75H17.03a10.042,10.042,0,0,0,8.19-4.65l.06-.08.02-.03.01-.03.04-.08c2.46-4.29,7.89-7.08,13.81-7.08H77.99l.06-.01.28-.04a13.88,13.88,0,0,0,11.84-13.67V72.552a14.406,14.406,0,0,0-14.39-14.39m8.89,30.3a8.358,8.358,0,0,1-7.07,8.22H73.65V63.662h2.13a8.9,8.9,0,0,1,8.89,8.89Z"/>
    <path id="패스_1142" data-name="패스 1142" d="M282.382,134.482v29.34a9.317,9.317,0,0,1-9.29,9.29H126.562v-47.92h146.53a9.307,9.307,0,0,1,9.21,8.13,7.455,7.455,0,0,1,.08,1.16" fill="#feb100"/>
    <path id="패스_1143" data-name="패스 1143" d="M282.3,133.322h-70.62v0a39.727,39.727,0,0,0-31.76,15.826h-53.36v23.96h45.331v0h79.568v0h21.631a9.317,9.317,0,0,0,9.29-9.29v-29.34a7.455,7.455,0,0,0-.08-1.16" fill="#fe9000"/>
    <path id="패스_1144" data-name="패스 1144" d="M247.236,173.116H176.119a35.558,35.558,0,1,1,71.117,0" fill="#2d374d"/>
    <path id="패스_1145" data-name="패스 1145" d="M243.906,173.113a32.227,32.227,0,1,1-32.227-32.227,32.227,32.227,0,0,1,32.227,32.227"/>
    <path id="패스_1146" data-name="패스 1146" d="M231.562,173.113a19.882,19.882,0,1,1-19.882-19.882,19.882,19.882,0,0,1,19.882,19.882" fill="#ed8805"/>
    <rect id="사각형_2595" data-name="사각형 2595" width="6.267" height="73.501" transform="translate(126.563 65.342)" fill="#b8c2d6"/>
    <rect id="사각형_2596" data-name="사각형 2596" width="6.267" height="4.327" transform="translate(126.563 182.309)" fill="#2d374d"/>
    <rect id="사각형_2597" data-name="사각형 2597" width="11.702" height="64.798" transform="translate(123.845 118.711)" fill="#161c26"/>
    <rect id="사각형_2598" data-name="사각형 2598" width="11.702" height="2.946" transform="translate(123.845 186.636)" fill="#2d374d"/>
    <path id="패스_1147" data-name="패스 1147" d="M220.37,173.113a8.69,8.69,0,1,1-8.69-8.69,8.69,8.69,0,0,1,8.69,8.69"/>
    <path id="패스_1148" data-name="패스 1148" d="M135.548,144.515l-11.7-8.963V126.4l11.7,8.963Z" fill="#fff"/>
    <path id="패스_1149" data-name="패스 1149" d="M135.548,161.132l-11.7-8.963v-9.157l11.7,8.963Z" fill="#fff"/>
    <path id="패스_1150" data-name="패스 1150" d="M135.548,177.749l-11.7-8.963v-9.157l11.7,8.963Z" fill="#fff"/>
    <rect id="사각형_2599" data-name="사각형 2599" width="6.267" height="4.327" transform="translate(274.856 182.309)" fill="#2d374d"/>
    <rect id="사각형_2600" data-name="사각형 2600" width="11.702" height="50.187" transform="translate(272.139 133.322)" fill="#161c26"/>
    <rect id="사각형_2601" data-name="사각형 2601" width="11.702" height="2.946" transform="translate(272.139 186.636)" fill="#2d374d"/>
    <path id="패스_1151" data-name="패스 1151" d="M283.841,161.132l-11.7-8.963v-9.157l11.7,8.963Z" fill="#fff"/>
    <path id="패스_1152" data-name="패스 1152" d="M283.841,177.749l-11.7-8.963v-9.157l11.7,8.963Z" fill="#fff"/>
    <path id="패스_1153" data-name="패스 1153" d="M218.578,108.372,149.285,56.854l-1.41,2.038,69.294,51.518Z" fill="#b8c2d6" fill-rule="evenodd"/>
    <path id="패스_1154" data-name="패스 1154" d="M219.878,108.047,186.3,83.005l-2.82,4.078,33.577,25.041Z" fill-rule="evenodd"/>
    <path id="패스_1155" data-name="패스 1155" d="M277.435,94.559a5.367,5.367,0,0,0,6.44-7.041l-11.1-28.75a5.358,5.358,0,0,0-3.685-3.2L72.879.264A5.659,5.659,0,0,0,71.143,0a5.531,5.531,0,0,0-3.061,1.119L43.664,19.906a5.372,5.372,0,0,0,1.861,9.4ZM58.858,21.786,71.989,11.749l9.312,16.3ZM88.734,30.2,78.976,13.116l29.708,8.435L91.915,31.092Zm10.421,2.9,16.577-9.685,3.542,1.015,9.748,17.083ZM136.1,43.542l-9.588-17.1,29.875,8.4-17.106,9.59Zm10.446,3.07,17.106-9.59,2.989.761L176.6,55ZM183.667,57.03l-9.95-17.216,30.07,8.556-17.131,9.421Zm10.264,2.935L211.2,50.352l3.372,1.04,9.421,17.12Zm40.48,11.459-3.181-.905-9.253-17.145,29.516,8.292Zm7.241,2.007,17.082-9.758,4.963,1.486,6.241,16.236Z" fill="#ed7506"/>
    <path id="패스_1156" data-name="패스 1156" d="M153.475,53.5a6.055,6.055,0,1,1-7.9-3.3,6.056,6.056,0,0,1,7.9,3.3" fill="#ed7506"/>
    <path id="패스_1157" data-name="패스 1157" d="M150.168,55.474a2.317,2.317,0,1,1-2.624-1.962,2.317,2.317,0,0,1,2.624,1.962"/>
    <path id="패스_1158" data-name="패스 1158" d="M270.5,23.366,236.211,12.978a13.727,13.727,0,0,0-17.121,9.159l-4.6,15.169a6.635,6.635,0,0,0,4.429,8.28L266.8,60.092a6.636,6.636,0,0,0,8.2-4.213l4.662-15.389A13.736,13.736,0,0,0,270.5,23.366m-42.112,16.5a.313.313,0,0,1-.387.207l-5.273-1.6a.311.311,0,0,1-.207-.386L226.66,24.43a5.826,5.826,0,0,1,7.258-3.882.311.311,0,0,1,.206.386Zm10.144,3.073a.311.311,0,0,1-.386.207l-5.312-1.609a.3.3,0,0,1-.2-.384l5.735-18.93a.3.3,0,0,1,.377-.21l5.311,1.609a.312.312,0,0,1,.207.387Zm10.145,3.073a.3.3,0,0,1-.377.21l-5.312-1.609a.311.311,0,0,1-.206-.387l5.734-18.93a.312.312,0,0,1,.387-.207l5.312,1.609a.3.3,0,0,1,.2.384Zm10.154,3.077a.311.311,0,0,1-.386.206l-5.312-1.609a.311.311,0,0,1-.207-.386l5.735-18.931a.313.313,0,0,1,.387-.207l5.311,1.61a.311.311,0,0,1,.207.386ZM268.8,31.5a.312.312,0,0,1,.415-.2,5.519,5.519,0,0,1,2.963,6.6L267.96,51.832a.3.3,0,0,1-.374.2l-4.3-1.3a.3.3,0,0,1-.2-.374Z" fill="#feb100"/>
    <path id="패스_1159" data-name="패스 1159" d="M274.6,58.56a6.054,6.054,0,1,1-4.039-7.549A6.054,6.054,0,0,1,274.6,58.56" fill="#ed7506"/>
    <path id="패스_1160" data-name="패스 1160" d="M270.787,58a2.317,2.317,0,1,1-.793-3.179A2.316,2.316,0,0,1,270.787,58"/>
  </g>
</svg>
